<?xml version="1.0" standalone="no"?>
<!DOCTYPE svg PUBLIC "-//W3C//DTD SVG 20010904//EN"
 "http://www.w3.org/TR/2001/REC-SVG-20010904/DTD/svg10.dtd">
<svg version="1.0" xmlns="http://www.w3.org/2000/svg"
 width="512.000000pt" height="512.000000pt" viewBox="0 0 512.000000 512.000000"
 preserveAspectRatio="xMidYMid meet">
<style>
    path, polygon, rect {
    fill: #000050;
    }
    @media (prefers-color-scheme: dark) {
    path, polygon, rect {
    fill: white;
    }
    }
</style>
<g transform="translate(0.000000,512.000000) scale(0.100000,-0.100000)" stroke="none">
<path d="M2422 4330 c-19 -12 -41 -38 -52 -63 -19 -40 -20 -75 -20 -839 l0
-798 -801 0 c-886 0 -844 3 -892 -64 -32 -45 -31 -129 2 -175 45 -63 11 -61
891 -61 l800 0 0 -798 0 -798 23 -44 c40 -80 136 -107 211 -61 69 43 66 0 66
895 l0 806 806 0 806 0 39 22 c50 28 84 93 75 146 -7 44 -31 79 -76 110 l-33
22 -701 0 -701 0 630 630 c346 347 632 630 635 630 3 0 5 -38 6 -84 0 -90 12
-121 59 -152 32 -21 96 -20 129 1 53 35 56 57 56 389 l0 306 -336 0 -336 0
-34 -34 c-28 -28 -34 -42 -34 -75 0 -96 50 -131 184 -131 47 0 86 -1 86 -2 0
-7 -1246 -1258 -1252 -1258 -4 0 -9 320 -10 711 l-3 710 -42 40 c-38 35 -47
39 -95 39 -35 0 -64 -7 -86 -20z"/>
</g>
</svg>
