<?xml version="1.0" encoding="UTF-8"?>
<svg xmlns="http://www.w3.org/2000/svg" viewBox="0 0 145.84 21.46" preserveAspectRatio="xMinYMin meet">
<style>
    path, polygon, rect {
    fill: #000050;
    }
    @media (prefers-color-scheme: dark) {
    path, polygon, rect {
    fill: white;
    }
    }
</style>
<path d="M62.76,7.41a.61.61,0,0,0,.59-.63.64.64,0,0,0-.65-.6.62.62,0,0,0-.58.65.59.59,0,0,0,.64.58"></path>
<path d="M53.36,6.18a.64.64,0,0,0-.61.63.61.61,0,0,0,.63.6.59.59,0,0,0,.6-.62.61.61,0,0,0-.62-.61"></path>
<path d="M53.37,2.58a.63.63,0,0,0-.62.61.64.64,0,0,0,.62.63A.62.62,0,0,0,54,3.2a.61.61,0,0,0-.61-.62"></path>
<path d="M51.8,17.33a.61.61,0,0,0,.62-.61.61.61,0,1,0-1.22,0,.63.63,0,0,0,.6.63"></path>
<path d="M56.49,13.39a.64.64,0,0,0-.63.61.65.65,0,0,0,.63.63.64.64,0,0,0,.62-.62.62.62,0,0,0-.62-.62"></path>
<path d="M53.36,13.39a.63.63,0,0,0-.61.63.64.64,0,0,0,.63.61A.62.62,0,0,0,54,14a.61.61,0,0,0-.62-.6"></path>
<path d="M53.38,18.78a.65.65,0,0,0-.63.62.62.62,0,0,0,.61.62.6.6,0,0,0,.62-.61.63.63,0,0,0-.6-.63"></path>
<path d="M53.38,18.23a.62.62,0,1,0-.63-.62.63.63,0,0,0,.63.62"></path>
<path d="M50.24,14.63a.62.62,0,0,0,.62-.62.59.59,0,0,0-.6-.62.64.64,0,0,0-.64.61.67.67,0,0,0,.62.63"></path>
<path d="M50.24,5.62A.61.61,0,0,0,50.86,5a.63.63,0,0,0-.6-.64.68.68,0,0,0-.64.62.66.66,0,0,0,.62.63"></path>
<path d="M53.34,5.62A.61.61,0,0,0,54,5a.65.65,0,0,0-.58-.66.66.66,0,0,0-.65.6.64.64,0,0,0,.59.65"></path>
<path d="M56.46,12.81a.61.61,0,1,0,0-1.21.61.61,0,1,0,0,1.21"></path>
<path d="M50.24,18.78a.66.66,0,0,0-.62.64.64.64,0,0,0,.64.6.59.59,0,0,0,.6-.62.63.63,0,0,0-.62-.62"></path>
<path d="M58.06,5.28a.62.62,0,0,0-.62.62.59.59,0,0,0,.57.62.6.6,0,0,0,.65-.59.61.61,0,0,0-.6-.65"></path>
<path d="M61.18,6.52a.59.59,0,0,0,.59-.64.58.58,0,0,0-.63-.59.56.56,0,0,0-.57.61.58.58,0,0,0,.61.62"></path>
<path d="M50.24,6.18a.66.66,0,0,0-.62.63.62.62,0,0,0,.64.6.59.59,0,0,0,.6-.62.61.61,0,0,0-.62-.61"></path>
<path d="M59.63,7.41a.62.62,0,1,0,0-1.23.64.64,0,0,0-.6.64.62.62,0,0,0,.64.59"></path>
<path d="M59.65,8a.61.61,0,1,0-.06,1.21A.61.61,0,1,0,59.65,8"></path>
<path d="M54.9,4.71a.58.58,0,0,0,.64-.59.61.61,0,0,0-.6-.64.59.59,0,0,0-.61.62.57.57,0,0,0,.57.61"></path>
<path d="M61.13,4.71a.58.58,0,0,0,.64-.59.58.58,0,0,0-.58-.64.59.59,0,0,0-.62.62.55.55,0,0,0,.56.61"></path>
<path d="M59.65,11.6a.61.61,0,1,0-.06,1.21.61.61,0,1,0,.06-1.21"></path>
<path d="M59.6,3.82a.64.64,0,0,0,.63-.61.64.64,0,0,0-.61-.63.62.62,0,1,0,0,1.24"></path>
<path d="M51.85,6.52a.6.6,0,0,0,.57-.62.61.61,0,1,0-.57.62"></path>
<path d="M54.92,6.52a.58.58,0,0,0,.61-.62.6.6,0,1,0-1.2,0,.58.58,0,0,0,.59.64"></path>
<path d="M50.27,15.19a.63.63,0,0,0-.64.6.62.62,0,0,0,.6.63.62.62,0,0,0,0-1.23"></path>
<path d="M50.23,17a.64.64,0,0,0-.61.63.66.66,0,0,0,.64.61.62.62,0,0,0,0-1.24"></path>
<path d="M50.23,3.82a.63.63,0,0,0,.63-.6.62.62,0,0,0-.59-.64.65.65,0,0,0-.65.6.66.66,0,0,0,.61.64"></path>
<path d="M56.5,3.82a.64.64,0,0,0,.61-.64.64.64,0,0,0-.64-.6.62.62,0,0,0,0,1.24"></path>
<path d="M51.81,4.71a.59.59,0,0,0,.61-.58.61.61,0,0,0-.59-.65.62.62,0,0,0-.63.61.6.6,0,0,0,.61.62"></path>
<path d="M58.05,4.71a.59.59,0,0,0,.61-.61.61.61,0,1,0-1.22,0,.59.59,0,0,0,.61.61"></path>
<path d="M59.61,9.79a.62.62,0,0,0-.62.63.6.6,0,0,0,.64.59.61.61,0,1,0,0-1.22"></path>
<path d="M53.34,16.42a.62.62,0,0,0,.64-.59.61.61,0,0,0-.58-.64.62.62,0,0,0-.65.59.61.61,0,0,0,.59.64"></path>
<path d="M51.8,17.89a.62.62,0,0,0-.6.59.61.61,0,0,0,1.22.08.62.62,0,0,0-.62-.67"></path>
<path d="M51.82,2.93a.63.63,0,0,0,.6-.65.61.61,0,0,0-1.22,0,.65.65,0,0,0,.62.64"></path>
<path d="M53.4,12.81a.59.59,0,0,0,.58-.6.58.58,0,0,0-.62-.61.61.61,0,0,0-.61.62.59.59,0,0,0,.65.59"></path>
<path d="M56.51,5.62a.65.65,0,0,0,.6-.64.65.65,0,0,0-.64-.61.68.68,0,0,0-.61.65.65.65,0,0,0,.65.6"></path>
<path d="M59.63,5.62A.65.65,0,0,0,60.24,5a.67.67,0,0,0-.64-.61.63.63,0,1,0,0,1.25"></path>
<path d="M62.72,8a.56.56,0,0,0-.6.58.59.59,0,0,0,.6.63.61.61,0,0,0,.63-.61.59.59,0,0,0-.63-.6"></path>
<path d="M51.8,7.07a.64.64,0,0,0-.6.64.58.58,0,0,0,.62.6.6.6,0,0,0,.61-.61.65.65,0,0,0-.63-.63"></path>
<path d="M62.71,9.79A.61.61,0,1,0,62.77,11a.61.61,0,0,0,.58-.61.63.63,0,0,0-.64-.61"></path>
<path d="M61.18,7.07a.62.62,0,0,0-.61.63.55.55,0,0,0,.57.61.58.58,0,0,0,.63-.59.63.63,0,0,0-.59-.65"></path>
<path d="M53.37,11A.58.58,0,0,0,54,10.4a.6.6,0,0,0-.63-.61.63.63,0,0,0-.6.64.62.62,0,0,0,.62.58"></path>
<path d="M52.75,8.61a.61.61,0,0,0,.59.6A.59.59,0,0,0,54,8.62a.58.58,0,0,0-.6-.62.6.6,0,0,0-.63.61"></path>
<path d="M50.24,8a.58.58,0,0,0-.61.58.6.6,0,0,0,.61.63.61.61,0,1,0,0-1.21"></path>
<path d="M51.8,15.53a.61.61,0,0,0,.62-.63.58.58,0,0,0-.62-.6.56.56,0,0,0-.6.58.63.63,0,0,0,.6.65"></path>
<path d="M50.25,12.81a.61.61,0,1,0,0-1.21.61.61,0,1,0,0,1.21"></path>
<path d="M54.93,2.92a.59.59,0,0,0,.6-.63.58.58,0,0,0-.62-.6.56.56,0,0,0-.58.6.6.6,0,0,0,.6.63"></path>
<path d="M50.24,11a.58.58,0,0,0,.62-.61.6.6,0,0,0-.63-.61.61.61,0,0,0-.6.64.59.59,0,0,0,.61.58"></path>
<path d="M58.06,12.5a.59.59,0,0,0-.62.61.55.55,0,0,0,.58.59.57.57,0,0,0,.64-.58.59.59,0,0,0-.6-.62"></path>
<path d="M51.84,10.71a.57.57,0,0,0-.64.57.61.61,0,1,0,1.22,0,.58.58,0,0,0-.58-.59"></path>
<path d="M51.8,10.1a.58.58,0,0,0,.62-.6.59.59,0,0,0-.63-.6.57.57,0,0,0-.58.63.54.54,0,0,0,.59.57"></path>
<path d="M61.17,8.9a.56.56,0,0,0-.6.61.54.54,0,0,0,.58.59.56.56,0,0,0,.62-.59.57.57,0,0,0-.6-.61"></path>
<path d="M54.9,12.5a.57.57,0,0,0-.57.64.54.54,0,0,0,.6.56.6.6,0,1,0,0-1.2"></path>
<path d="M52.42,13.11a.59.59,0,0,0-.62-.61.55.55,0,0,0-.59.57.56.56,0,0,0,.58.63.58.58,0,0,0,.63-.59"></path>
<path d="M54.92,10.71a.54.54,0,0,0-.59.57.58.58,0,0,0,.59.63.59.59,0,0,0,.62-.6.57.57,0,0,0-.62-.6"></path>
<path d="M58.06,11.91a.59.59,0,0,0,.6-.62.57.57,0,0,0-.64-.58.55.55,0,0,0-.58.59.59.59,0,0,0,.62.61"></path>
<path d="M61.21,10.71a.57.57,0,0,0-.65.56.6.6,0,0,0,.59.64.57.57,0,0,0,.62-.6.54.54,0,0,0-.56-.6"></path>
<path d="M51.82,19.93c-.26,0-.38.16-.39.38a.35.35,0,0,0,.35.38.37.37,0,0,0,.42-.36c0-.24-.13-.39-.38-.4"></path>
<path d="M61.17,12.71c-.24,0-.41.18-.39.42a.39.39,0,0,0,.78,0c0-.25-.18-.35-.39-.39"></path>
<path d="M56.49,10.78a.35.35,0,0,0,.38-.37c0-.27-.17-.4-.4-.39a.34.34,0,0,0-.35.37.33.33,0,0,0,.37.39"></path>
<path d="M58,14.53a.34.34,0,0,0-.37.35.35.35,0,0,0,.37.4c.25,0,.37-.13.4-.37a.37.37,0,0,0-.4-.38"></path>
<path d="M54.92,14.53a.37.37,0,0,0-.38.4.35.35,0,0,0,.38.35.36.36,0,0,0,.4-.38c0-.24-.17-.36-.4-.37"></path>
<path d="M58.06,2.68c.24,0,.36-.16.38-.41A.37.37,0,0,0,58,1.93a.33.33,0,0,0-.35.37.35.35,0,0,0,.39.38"></path>
<path d="M56.86,6.84c0-.24-.1-.41-.36-.42a.35.35,0,0,0-.38.39c0,.24.13.34.36.37s.37-.1.38-.34"></path>
<path d="M62.73,5.37c.25,0,.37-.14.38-.43a.36.36,0,0,0-.42-.31.33.33,0,0,0-.33.39.32.32,0,0,0,.37.35"></path>
<path d="M59.59,13.63a.33.33,0,0,0-.35.36c0,.25.12.4.38.39s.36-.16.36-.4-.15-.33-.39-.35"></path>
<path d="M43.33,6.18a.62.62,0,0,0-.61.63.59.59,0,0,0,.62.6A.62.62,0,0,0,44,6.79a.66.66,0,0,0-.63-.61"></path>
<path d="M34,3.82a.63.63,0,0,0,.63-.61A.62.62,0,0,0,34,2.58a.64.64,0,0,0-.63.61.62.62,0,0,0,.61.63"></path>
<path d="M34,6.18a.63.63,0,0,0-.65.6.62.62,0,0,0,.6.63.61.61,0,0,0,.64-.58A.63.63,0,0,0,34,6.18"></path>
<path d="M40.2,13.39a.62.62,0,0,0-.61.63.63.63,0,0,0,.63.61.64.64,0,0,0,.61-.63.64.64,0,0,0-.63-.61"></path>
<path d="M43.35,5.62A.64.64,0,0,0,44,5a.65.65,0,0,0-.63-.61.63.63,0,0,0-.6.65.61.61,0,0,0,.63.6"></path>
<path d="M32.42,17.33a.59.59,0,0,0,.59-.6.61.61,0,0,0-.59-.65.62.62,0,0,0-.61.63.61.61,0,0,0,.61.62"></path>
<path d="M37.1,3.82a.63.63,0,0,0,.61-.62.62.62,0,0,0-1.24,0,.64.64,0,0,0,.63.61"></path>
<path d="M40.22,3.82a.62.62,0,0,0,.61-.63.64.64,0,0,0-.63-.61.62.62,0,0,0-.61.63.63.63,0,0,0,.63.61"></path>
<path d="M35.54,17.33a.61.61,0,0,0,.6-.63.62.62,0,0,0-.62-.62.6.6,0,0,0-.59.64.58.58,0,0,0,.61.61"></path>
<path d="M34,18.78a.65.65,0,0,0-.61.64A.64.64,0,0,0,34,20a.62.62,0,0,0,.61-.63.63.63,0,0,0-.63-.61"></path>
<path d="M37.06,12.81a.61.61,0,1,0,0-1.21.61.61,0,1,0,0,1.21"></path>
<path d="M34,14.63a.64.64,0,0,0,.64-.6.61.61,0,0,0-.6-.63.62.62,0,0,0-.64.59.64.64,0,0,0,.6.64"></path>
<path d="M32.41,4.71a.57.57,0,0,0,.6-.63.59.59,0,0,0-.63-.6.6.6,0,0,0-.57.66.56.56,0,0,0,.6.57"></path>
<path d="M41.81,4.71a.56.56,0,0,0,.56-.61.6.6,0,0,0-.61-.62.59.59,0,0,0-.59.64.58.58,0,0,0,.64.59"></path>
<path d="M44.94,7.08a.67.67,0,0,0-.68.57.63.63,0,0,0,.58.66.59.59,0,0,0,.66-.55.63.63,0,0,0-.56-.68"></path>
<path d="M34,17a.61.61,0,0,0-.62.62.64.64,0,0,0,.62.62.65.65,0,0,0,.62-.63A.62.62,0,0,0,34,17"></path>
<path d="M40.2,11.6a.59.59,0,0,0-.61.62.59.59,0,0,0,.6.59.61.61,0,1,0,0-1.21"></path>
<path d="M34,12.81a.61.61,0,1,0-.64-.6.6.6,0,0,0,.64.6"></path>
<path d="M35.54,4.71a.59.59,0,0,0,.6-.63.61.61,0,0,0-.64-.6.59.59,0,0,0-.57.66.58.58,0,0,0,.61.57"></path>
<path d="M38.64,3.48a.6.6,0,0,0-.6.64.58.58,0,0,0,.6.59.57.57,0,0,0,.61-.62.58.58,0,0,0-.61-.61"></path>
<path d="M35.51,5.29a.56.56,0,0,0-.58.6.59.59,0,0,0,.6.63.61.61,0,0,0,.61-.63.58.58,0,0,0-.63-.6"></path>
<path d="M33.35,5a.64.64,0,0,0,.61.63.63.63,0,0,0,0-1.25.65.65,0,0,0-.63.62"></path>
<path d="M38.66,5.28A.6.6,0,0,0,38,5.9a.6.6,0,0,0,.58.62.58.58,0,0,0,.63-.6.6.6,0,0,0-.59-.64"></path>
<path d="M40.22,5.62A.63.63,0,0,0,40.83,5a.65.65,0,0,0-.62-.62.66.66,0,0,0-.62.63.65.65,0,0,0,.63.62"></path>
<path d="M37.11,13.39a.62.62,0,0,0-.64.6.64.64,0,0,0,.6.64.65.65,0,0,0,.65-.6.63.63,0,0,0-.61-.64"></path>
<path d="M34,15.19a.62.62,0,0,0-.62.62.6.6,0,0,0,.62.61.62.62,0,1,0,0-1.23"></path>
<path d="M33.93,11a.61.61,0,1,0-.58-.61.61.61,0,0,0,.58.61"></path>
<path d="M44.89,5.28a.65.65,0,0,0-.63.62.64.64,0,0,0,.63.62.61.61,0,0,0,.61-.62.61.61,0,0,0-.61-.62"></path>
<path d="M32.4,17.88a.61.61,0,0,0-.59.65.55.55,0,0,0,.58.59.58.58,0,0,0,.62-.61.6.6,0,0,0-.61-.63"></path>
<path d="M32.43,6.52a.58.58,0,0,0,.58-.6.59.59,0,0,0-.59-.64.62.62,0,0,0,0,1.24"></path>
<path d="M32.41,15.53a.6.6,0,0,0,.6-.63.6.6,0,1,0-1.2,0,.61.61,0,0,0,.6.64"></path>
<path d="M41.78,5.28a.59.59,0,0,0-.61.62.56.56,0,0,0,.57.61.57.57,0,0,0,.63-.59.6.6,0,0,0-.59-.64"></path>
<path d="M34,9.21a.57.57,0,0,0,.6-.58A.58.58,0,0,0,34,8a.6.6,0,0,0-.63.6.61.61,0,0,0,.63.61"></path>
<path d="M35.52,17.89a.57.57,0,0,0-.59.59.59.59,0,0,0,.59.64.6.6,0,0,0,.62-.61.6.6,0,0,0-.62-.62"></path>
<path d="M44,8.61A.62.62,0,0,0,43.37,8a.59.59,0,0,0-.65.58.58.58,0,0,0,.59.63.63.63,0,0,0,.65-.6"></path>
<path d="M35.51,14.29a.59.59,0,0,0-.58.64.57.57,0,0,0,.6.59.62.62,0,1,0,0-1.23"></path>
<path d="M41.76,8.31a.57.57,0,0,0,.61-.61.61.61,0,0,0-.61-.62.6.6,0,0,0-.59.65.55.55,0,0,0,.59.58"></path>
<path d="M35.51,7.08a.58.58,0,0,0-.58.61.57.57,0,0,0,.6.62.59.59,0,0,0,.61-.62.62.62,0,0,0-.63-.61"></path>
<path d="M44.92,8.9a.6.6,0,1,0,0,1.2.57.57,0,0,0,.62-.6.56.56,0,0,0-.58-.6"></path>
<path d="M32.4,7.08a.61.61,0,0,0-.59.65.55.55,0,0,0,.59.58A.57.57,0,0,0,33,7.7a.6.6,0,0,0-.61-.62"></path>
<path d="M43.33,11.6a.56.56,0,0,0-.61.57.58.58,0,0,0,.59.64.61.61,0,1,0,0-1.21"></path>
<path d="M37.72,5a.66.66,0,0,0-.64-.61.65.65,0,0,0-.61.64.64.64,0,0,0,.63.61A.66.66,0,0,0,37.72,5"></path>
<path d="M38.64,2.92a.59.59,0,0,0,.61-.61.57.57,0,0,0-.6-.62.59.59,0,0,0-.61.63.63.63,0,0,0,.6.6"></path>
<path d="M35.51,2.92a.61.61,0,0,0,.63-.61.59.59,0,0,0-.61-.62.58.58,0,0,0-.6.62.58.58,0,0,0,.58.61"></path>
<path d="M43.36,11a.61.61,0,0,0,.59-.6.63.63,0,0,0-.63-.62.59.59,0,0,0-.6.64.58.58,0,0,0,.64.58"></path>
<path d="M32.42,2.92A.6.6,0,0,0,33,2.27a.58.58,0,0,0-.64-.58.56.56,0,0,0-.56.61.6.6,0,0,0,.61.62"></path>
<path d="M32.43,11.91a.6.6,0,0,0,0-1.2.56.56,0,0,0-.6.6.57.57,0,0,0,.62.6"></path>
<path d="M41.77,10.71a.55.55,0,0,0-.6.57.57.57,0,0,0,.58.63.58.58,0,0,0,.62-.6.55.55,0,0,0-.6-.6"></path>
<path d="M32.38,8.9a.56.56,0,0,0-.57.64.53.53,0,0,0,.61.56.6.6,0,1,0,0-1.2"></path>
<path d="M41.75,8.9a.56.56,0,0,0-.58.63.6.6,0,0,0,1.2,0,.57.57,0,0,0-.62-.6"></path>
<path d="M35.5,13.7a.6.6,0,1,0-.57-.59.54.54,0,0,0,.57.59"></path>
<path d="M35.5,8.9a.55.55,0,0,0-.57.6.56.56,0,0,0,.61.6.57.57,0,0,0,.6-.62.58.58,0,0,0-.64-.58"></path>
<path d="M34.93,11.24a.59.59,0,0,0,.55.67.6.6,0,0,0,.66-.57.57.57,0,0,0-.58-.63.54.54,0,0,0-.63.53"></path>
<path d="M38.62,10.71a.54.54,0,0,0-.57.59.6.6,0,1,0,1.2,0,.55.55,0,0,0-.63-.57"></path>
<path d="M38.64,12.5a.55.55,0,0,0-.59.58.6.6,0,0,0,1.2.07.57.57,0,0,0-.61-.65"></path>
<path d="M32.41,13.7a.55.55,0,0,0,.6-.61.6.6,0,1,0-1.2,0,.54.54,0,0,0,.6.57"></path>
<path d="M41.78,12.5a.56.56,0,0,0-.61.6.54.54,0,0,0,.57.6.56.56,0,0,0,.63-.58.58.58,0,0,0-.59-.62"></path>
<path d="M32.43,19.92a.38.38,0,0,0-.41.39.37.37,0,0,0,.37.38.36.36,0,0,0,.41-.37.38.38,0,0,0-.37-.4"></path>
<path d="M37.08,10.78c.23,0,.39-.11.38-.3s-.15-.46-.38-.45a.34.34,0,0,0-.36.4.33.33,0,0,0,.36.35"></path>
<path d="M40.16,10a.38.38,0,0,0-.32.42.36.36,0,0,0,.41.36.34.34,0,0,0,.33-.39c0-.26-.15-.36-.42-.39"></path>
<path d="M35.49,19.93a.34.34,0,0,0-.34.39c0,.24.18.35.38.38s.42-.18.39-.42a.36.36,0,0,0-.43-.35"></path>
<path d="M41.76,2.68a.37.37,0,0,0,.4-.37.35.35,0,0,0-.35-.38c-.24,0-.41.1-.42.34s.12.38.37.41"></path>
<path d="M38.61,14.53a.36.36,0,0,0-.35.37.35.35,0,0,0,.39.38.33.33,0,0,0,.38-.34c0-.23-.11-.39-.42-.41"></path>
<path d="M44.91,10.92a.35.35,0,0,0-.4.36c0,.25.15.37.37.42a.38.38,0,0,0,.38-.4.34.34,0,0,0-.35-.38"></path>
<path d="M40.22,6.42a.35.35,0,0,0-.38.4.32.32,0,0,0,.36.35c.25,0,.38-.14.39-.41a.36.36,0,0,0-.37-.34"></path>
<path d="M37.13,7.17a.33.33,0,0,0,.33-.39.35.35,0,0,0-.41-.36.34.34,0,0,0-.33.39c0,.28.17.38.41.36"></path>
<path d="M43.33,3.57c.25,0,.37-.14.38-.44a.36.36,0,0,0-.42-.3.33.33,0,0,0-.33.39.34.34,0,0,0,.37.35"></path>
<path d="M3.5,6.18a.63.63,0,0,0-.62.62.62.62,0,0,0,1.23,0,.63.63,0,0,0-.61-.62"></path>
<path d="M22.19,7.41a.6.6,0,0,0,.6-.62.61.61,0,0,0-.62-.61.63.63,0,0,0-.61.63.61.61,0,0,0,.63.6"></path>
<path d="M3.48,2.58a.62.62,0,0,0-.6.63.61.61,0,0,0,.63.61.63.63,0,0,0,.6-.63.62.62,0,0,0-.63-.61"></path>
<path d="M8.15,17.89a.62.62,0,1,0,0,1.23.61.61,0,0,0,.62-.61.62.62,0,0,0-.61-.62"></path>
<path d="M20.62,17.33a.63.63,0,1,0,0-1.25.63.63,0,0,0,0,1.25"></path>
<path d="M17.49,14.29a.61.61,0,0,0-.6.63.63.63,0,0,0,.63.61.65.65,0,0,0,.61-.64.64.64,0,0,0-.64-.6"></path>
<path d="M8.13,14.29a.62.62,0,1,0,.63.6.61.61,0,0,0-.63-.6"></path>
<path d="M5,3.48a.64.64,0,0,0-.61.63.61.61,0,0,0,.63.6A.62.62,0,0,0,5,3.48"></path>
<path d="M22.19,14.63a.62.62,0,0,0,.6-.63.6.6,0,0,0-.62-.61.63.63,0,0,0-.61.63.65.65,0,0,0,.63.61"></path>
<path d="M25.32,7.41a.61.61,0,0,0,.6-.62.64.64,0,0,0-.63-.61.62.62,0,1,0,0,1.23"></path>
<path d="M5,6.52a.6.6,0,0,0,.62-.61A.61.61,0,0,0,5,5.28.62.62,0,1,0,5,6.52"></path>
<path d="M19.08,17a.62.62,0,0,0-.64.6.64.64,0,0,0,.6.64.62.62,0,0,0,0-1.24"></path>
<path d="M22.17,15.19a.63.63,0,0,0-.61.63.61.61,0,0,0,.63.6.61.61,0,0,0,.6-.63.61.61,0,0,0-.62-.6"></path>
<path d="M15.94,5.62a.61.61,0,0,0,.6-.59A.62.62,0,0,0,16,4.37a.63.63,0,0,0-.63.62.59.59,0,0,0,.6.63"></path>
<path d="M5,1.69a.61.61,0,0,0-.6.63A.65.65,0,0,0,5,2.93a.63.63,0,0,0,.59-.65A.59.59,0,0,0,5,1.69"></path>
<path d="M11.3,14.29a.62.62,0,1,0-.08,1.24.67.67,0,0,0,.67-.58.65.65,0,0,0-.59-.66"></path>
<path d="M19.06,15.19a.63.63,0,0,0-.62.61.62.62,0,0,0,.62.62.6.6,0,0,0,.61-.61.61.61,0,0,0-.61-.62"></path>
<path d="M8.76,16.72a.65.65,0,0,0-.61-.64.63.63,0,0,0,0,1.25.65.65,0,0,0,.63-.61"></path>
<path d="M17.49,16.08a.63.63,0,0,0-.6.64.62.62,0,0,0,.63.61.65.65,0,0,0,.61-.64.66.66,0,0,0-.64-.61"></path>
<path d="M14.41,5.28a.63.63,0,0,0-.65.59.64.64,0,0,0,.59.65A.63.63,0,0,0,15,5.93a.62.62,0,0,0-.59-.65"></path>
<path d="M11.26,11.91a.62.62,0,0,0,.63-.61.63.63,0,0,0-1.25,0,.61.61,0,0,0,.62.61"></path>
<path d="M23.72,4.71a.57.57,0,0,0,.62-.61.57.57,0,0,0-.56-.62.58.58,0,0,0-.64.59.59.59,0,0,0,.58.64"></path>
<path d="M5.05,7.07a.67.67,0,0,0-.65.61.63.63,0,0,0,.6.63.58.58,0,0,0,.63-.59.63.63,0,0,0-.58-.65"></path>
<path d="M11.24,10.1a.59.59,0,0,0,.65-.59.61.61,0,0,0-.63-.61.6.6,0,1,0,0,1.2"></path>
<path d="M14.35,8.9a.6.6,0,0,0,0,1.2A.58.58,0,0,0,15,9.49a.59.59,0,0,0-.65-.59"></path>
<path d="M11.25,12.5a.6.6,0,0,0-.61.63.57.57,0,0,0,.61.57.59.59,0,0,0,.64-.6.61.61,0,0,0-.64-.6"></path>
<path d="M19.06,18.78a.68.68,0,0,0-.63.63.63.63,0,0,0,.63.61.59.59,0,0,0,.61-.61.62.62,0,0,0-.61-.63"></path>
<path d="M20.62,17.89a.62.62,0,0,0-.61.63.6.6,0,0,0,.64.6.65.65,0,0,0,.6-.6.66.66,0,0,0-.63-.63"></path>
<path d="M26.85,5.28a.62.62,0,0,0-.6.6.61.61,0,1,0,.6-.6"></path>
<path d="M14.38,8.31A.61.61,0,0,0,15,7.7a.64.64,0,0,0-.62-.63.65.65,0,0,0-.62.63.61.61,0,0,0,.62.61"></path>
<path d="M25.29,3.82a.63.63,0,0,0,.63-.6.62.62,0,1,0-.63.6"></path>
<path d="M12.83,5.62A.59.59,0,0,0,13.42,5a.61.61,0,0,0-.61-.62.63.63,0,0,0-.6.64.61.61,0,0,0,.62.61"></path>
<path d="M9.7,17c-.35,0-.59.2-.59.59a.58.58,0,0,0,.58.65.62.62,0,0,0,.62-.62A.6.6,0,0,0,9.7,17"></path>
<path d="M2,3.48a.62.62,0,0,0-.07,1.23.59.59,0,0,0,.63-.6A.58.58,0,0,0,2,3.48"></path>
<path d="M14.39,4.71A.6.6,0,0,0,15,4.09a.62.62,0,0,0-.63-.61.64.64,0,0,0-.61.63.61.61,0,0,0,.63.6"></path>
<path d="M26.86,3.48a.6.6,0,0,0-.61.63.59.59,0,0,0,.58.61.61.61,0,0,0,.64-.6.61.61,0,0,0-.61-.64"></path>
<path d="M3.51,5.62A.63.63,0,0,0,4.11,5a.66.66,0,0,0-.63-.62.64.64,0,0,0-.6.64.63.63,0,0,0,.63.61"></path>
<path d="M25.3,4.37a.66.66,0,0,0-.62.63.62.62,0,0,0,.62.62A.64.64,0,0,0,25.92,5a.65.65,0,0,0-.62-.63"></path>
<path d="M19,13.39a.61.61,0,0,0-.6.63.66.66,0,0,0,.64.61.62.62,0,0,0,.59-.64.6.6,0,0,0-.63-.6"></path>
<path d="M8.14,11.91a.6.6,0,0,0,.62-.61.58.58,0,0,0-.64-.59.55.55,0,0,0-.59.58.59.59,0,0,0,.61.62"></path>
<path d="M14.36,10.71a.54.54,0,0,0-.59.58.62.62,0,1,0,.59-.58"></path>
<path d="M9.69,16.42a.62.62,0,0,0,.05-1.23.57.57,0,0,0-.63.59.58.58,0,0,0,.58.64"></path>
<path d="M25.3,8a.61.61,0,0,0,0,1.21.61.61,0,0,0,.64-.59A.59.59,0,0,0,25.3,8"></path>
<path d="M6.58,15.19a.59.59,0,0,0-.6.63.57.57,0,0,0,.58.6.62.62,0,0,0,0-1.23"></path>
<path d="M20.61,15.53a.65.65,0,0,0,.63-.62.63.63,0,0,0-.58-.62.61.61,0,0,0-.65.59.63.63,0,0,0,.6.65"></path>
<path d="M23.73,6.51a.57.57,0,0,0,.61-.61.59.59,0,0,0-.61-.62.6.6,0,0,0-.59.65.55.55,0,0,0,.59.58"></path>
<path d="M8.1,13.7a.59.59,0,0,0,.66-.56.62.62,0,0,0-1.24-.05.59.59,0,0,0,.58.61"></path>
<path d="M12.82,7.41a.59.59,0,0,0,.61-.62.61.61,0,1,0-1.22,0,.6.6,0,0,0,.61.62"></path>
<path d="M21.56,10.43a.62.62,0,1,0,.61-.64.62.62,0,0,0-.61.64"></path>
<path d="M16,7.41a.54.54,0,0,0,.58-.59A.6.6,0,0,0,16,6.18a.59.59,0,0,0-.61.63.57.57,0,0,0,.62.6"></path>
<path d="M5,10.71a.59.59,0,0,0-.64.59.61.61,0,0,0,.58.61.59.59,0,0,0,.65-.58A.57.57,0,0,0,5,10.71"></path>
<path d="M3.48,8a.59.59,0,0,0-.6.63.6.6,0,0,0,.65.58.58.58,0,0,0,.58-.61A.59.59,0,0,0,3.48,8"></path>
<path d="M1.92,5.28a.61.61,0,0,0-.59.65A.58.58,0,0,0,2,6.51a.56.56,0,0,0,.57-.61.59.59,0,0,0-.62-.62"></path>
<path d="M17.5,11.91a.6.6,0,0,0,.62-.61.57.57,0,0,0-.59-.59.58.58,0,0,0-.64.58.59.59,0,0,0,.61.62"></path>
<path d="M1.93,1.69a.58.58,0,0,0-.6.62A.64.64,0,0,0,2,2.93a.62.62,0,0,0,.58-.62.59.59,0,0,0-.61-.62"></path>
<path d="M17.49,12.5a.6.6,0,1,0,0,1.2.61.61,0,0,0,.64-.6.62.62,0,0,0-.64-.6"></path>
<path d="M26.87,1.69a.58.58,0,0,0-.62.6.6.6,0,0,0,.57.63.62.62,0,0,0,.65-.59.59.59,0,0,0-.6-.64"></path>
<path d="M17.48,10.1a.61.61,0,0,0,.65-.59.6.6,0,0,0-.63-.61.56.56,0,0,0-.61.57.57.57,0,0,0,.59.63"></path>
<path d="M23.78,8.31a.55.55,0,0,0,.56-.62.6.6,0,0,0-.62-.61.6.6,0,0,0-.58.65.57.57,0,0,0,.64.58"></path>
<path d="M5,8.9a.59.59,0,0,0-.61.63A.57.57,0,0,0,5,10.1a.57.57,0,0,0,.61-.6A.58.58,0,0,0,5,8.9"></path>
<path d="M6.55,7.41a.56.56,0,0,0,.63-.58.59.59,0,0,0-.59-.65A.61.61,0,0,0,6,6.8a.56.56,0,0,0,.57.61"></path>
<path d="M23.74,2.93a.61.61,0,0,0,.6-.64.57.57,0,0,0-.62-.6.55.55,0,0,0-.58.59.61.61,0,0,0,.6.65"></path>
<path d="M22.18,9.21a.57.57,0,0,0,.61-.61.58.58,0,0,0-.63-.6.59.59,0,0,0-.6.64.59.59,0,0,0,.62.57"></path>
<path d="M20.6,12.5a.55.55,0,0,0-.58.59.55.55,0,0,0,.6.61.59.59,0,0,0,.63-.61.62.62,0,0,0-.65-.59"></path>
<path d="M20.61,11.91a.62.62,0,0,0,.64-.6.6.6,0,0,0-.63-.6.56.56,0,0,0-.61.61.58.58,0,0,0,.6.59"></path>
<path d="M22.18,12.8a.56.56,0,0,0,.61-.57.58.58,0,0,0-.59-.63.61.61,0,0,0-.64.6.58.58,0,0,0,.62.6"></path>
<path d="M6.55,13.4A.55.55,0,0,0,6,14a.62.62,0,0,0,.61.63A.6.6,0,0,0,7.18,14a.57.57,0,0,0-.63-.59"></path>
<path d="M9.7,14.63a.63.63,0,0,0,.61-.64.6.6,0,0,0-.63-.6.57.57,0,0,0-.57.65.6.6,0,0,0,.59.59"></path>
<path d="M9.7,18.78a.6.6,0,0,0-.59.64.6.6,0,1,0,1.2,0,.63.63,0,0,0-.61-.64"></path>
<path d="M11.25,16.08a.65.65,0,0,0-.61.64.65.65,0,0,0,.64.61.65.65,0,0,0,.61-.64.66.66,0,0,0-.64-.61"></path>
<path d="M23.76,10.71a.6.6,0,0,0-.06,1.2.56.56,0,0,0,.64-.58.56.56,0,0,0-.58-.62"></path>
<path d="M6.57,12.81a.61.61,0,1,0,0-1.21.61.61,0,0,0,0,1.21"></path>
<path d="M9.71,12.81a.61.61,0,1,0,0-1.21.54.54,0,0,0-.56.6.55.55,0,0,0,.6.61"></path>
<path d="M16,11.6a.58.58,0,0,0-.62.6.57.57,0,0,0,.61.61.55.55,0,0,0,.59-.58A.56.56,0,0,0,16,11.6"></path>
<path d="M19,12.81a.61.61,0,0,0,.67-.56.57.57,0,0,0-.53-.65.64.64,0,0,0-.71.58.63.63,0,0,0,.57.63"></path>
<path d="M12.82,9.21a.59.59,0,0,0,.61-.62A.56.56,0,0,0,12.85,8a.58.58,0,0,0-.64.59.59.59,0,0,0,.61.62"></path>
<path d="M23.75,8.9a.56.56,0,0,0-.61.6.54.54,0,0,0,.56.6.56.56,0,0,0,.64-.57.57.57,0,0,0-.59-.63"></path>
<path d="M6.6,11a.57.57,0,0,0,.58-.63.55.55,0,0,0-.59-.58.58.58,0,0,0-.61.61.59.59,0,0,0,.62.6"></path>
<path d="M12.8,9.8a.55.55,0,0,0-.58.59.59.59,0,0,0,.61.63.6.6,0,0,0,.6-.63.59.59,0,0,0-.63-.59"></path>
<path d="M15.94,9.21a.57.57,0,0,0,.6-.61A.55.55,0,0,0,16,8a.56.56,0,0,0-.63.59.58.58,0,0,0,.6.62"></path>
<path d="M12.82,11.6a.57.57,0,0,0-.6.61.56.56,0,0,0,.57.6.58.58,0,0,0,.64-.59.59.59,0,0,0-.61-.62"></path>
<path d="M15.93,9.8a.55.55,0,0,0-.59.58.58.58,0,0,0,.59.63.59.59,0,0,0,.62-.61.58.58,0,0,0-.62-.6"></path>
<path d="M6,8.62a.56.56,0,0,0,.59.59.57.57,0,0,0,.61-.6A.55.55,0,0,0,6.58,8a.56.56,0,0,0-.6.62"></path>
<path d="M23.72,12.72a.38.38,0,0,0-.37.43.36.36,0,0,0,.39.34.39.39,0,1,0,0-.77"></path>
<path d="M9.71,10.79a.4.4,0,0,0,.39-.4c0-.25-.18-.39-.43-.37a.39.39,0,0,0,0,.77"></path>
<path d="M16,13.63a.38.38,0,0,0,0,.75c.26,0,.37-.13.43-.36s-.13-.39-.39-.39"></path>
<path d="M20.63,9.9c.23-.05.39-.16.37-.41a.35.35,0,0,0-.4-.37.35.35,0,0,0-.35.37c0,.26.15.37.38.41"></path>
<path d="M12.83,13.64a.34.34,0,0,0-.39.37c0,.23.14.37.46.38a.38.38,0,0,0,.31-.4.34.34,0,0,0-.38-.35"></path>
<path d="M8.15,9.9c.23-.05.38-.17.37-.42a.35.35,0,0,0-.37-.36.35.35,0,0,0-.38.39c0,.26.17.34.38.39"></path>
<path d="M12.83,3.57c.26,0,.36-.16.38-.39s-.17-.37-.42-.35a.34.34,0,0,0-.35.37.34.34,0,0,0,.39.37"></path>
<path d="M19.06,10.79c.25,0,.37-.17.37-.41s-.15-.34-.38-.36-.38.15-.37.41a.36.36,0,0,0,.38.36"></path>
<path d="M6.54,17.24a.33.33,0,0,0-.34.37c0,.23.14.38.44.37a.36.36,0,0,0,.33-.4.36.36,0,0,0-.43-.34"></path>
<path d="M28.41,2.82a.33.33,0,0,0-.37.36.33.33,0,0,0,.33.39.35.35,0,0,0,.42-.32c0-.29-.14-.42-.38-.43"></path>
<path d="M16,3.58a.35.35,0,0,0,.37-.36.38.38,0,0,0-.41-.4c-.21,0-.38.14-.36.39a.36.36,0,0,0,.4.37"></path>
<path d="M8.15,19.93a.34.34,0,0,0-.38.38c0,.26.15.36.37.38s.4-.15.38-.4a.35.35,0,0,0-.37-.36"></path>
<path d="M20.61,19.91a.37.37,0,0,0-.36.4.34.34,0,0,0,.34.38.36.36,0,0,0,.41-.36c0-.25-.13-.37-.39-.42"></path>
<path d="M6.58,5.37c.26,0,.36-.15.4-.38s-.16-.38-.42-.36A.35.35,0,0,0,6.2,5a.34.34,0,0,0,.38.34"></path>
<path d="M5,12.72a.34.34,0,0,0-.37.35.34.34,0,0,0,.35.41.34.34,0,0,0,.39-.34c0-.28-.14-.42-.37-.42"></path>
<path d="M22.17,5.37A.32.32,0,0,0,22.55,5c0-.24-.1-.4-.36-.4A.34.34,0,0,0,21.8,5c0,.26.12.38.37.4"></path>
<path d="M14.35,2.67a.34.34,0,0,0,.41-.32c0-.29-.14-.42-.39-.42a.33.33,0,0,0-.36.36.33.33,0,0,0,.34.38"></path>
<path d="M17.5,8.07a.38.38,0,1,0,0-.75.35.35,0,0,0-.33.4.33.33,0,0,0,.37.35"></path>
<path d="M11.28,8.07c.19,0,.35-.09.35-.34s-.11-.4-.36-.41-.37.15-.38.39.14.34.39.36"></path>
<path d="M8.15,8.07c.24,0,.36-.13.37-.38s-.13-.38-.39-.37a.34.34,0,0,0-.36.37.34.34,0,0,0,.38.38"></path>
<path d="M20.59,8.07A.36.36,0,0,0,21,7.71c0-.23-.13-.39-.39-.39a.33.33,0,0,0-.36.36c0,.23.09.38.33.39"></path>
<path d="M22.19,17.23a.36.36,0,0,0-.39.39c0,.27.18.37.41.36s.34-.16.35-.39a.34.34,0,0,0-.37-.36"></path>
<path d="M.4,2.83c-.23,0-.4.1-.4.37a.33.33,0,0,0,.35.37c.25,0,.38-.11.4-.36S.64,2.83.4,2.83"></path>
<rect x="77.4" width="0.32" height="21.46"></rect>
<path d="M103,14.87c0-1.47-1-2.4-2.72-2.4H95.81v4.79h4.44c1.71,0,2.72-.89,2.72-2.39m-7.16-10V9.27h2.68c1.62,0,2.49-.89,2.49-2.19s-.87-2.17-2.49-2.17Zm11,10.1c0,3.29-2.57,5.6-6.27,5.6H92.06v-19h6.75c3.52,0,6,2.16,6,5.31a4.65,4.65,0,0,1-1.41,3.43,4.77,4.77,0,0,1,3.38,4.7"></path>
<path d="M119.19,8.49l-2.54,6.44h5.08Zm3.89,9.64h-7.79l-1.07,2.48H110l8.51-19.39h1.3l8.48,19.39h-4.18Z"></path>
<polygon points="145.84 1.22 137.35 20.61 136.06 20.61 127.54 1.22 131.96 1.22 136.72 12.77 141.45 1.22 145.84 1.22"></polygon>
</svg> 